# xmcd
#
# Track frame offsets: 
#        150
#        12265
#        35852
#        53485
#        63817
#        75547
#        88782
#        99825
#        113160
#        129262
#        141237
#
# Disc length: 2023 seconds
#
# Revision: 0
# Processed by: cddbd v1.5.2PL0 Copyright (c) Steve Scherf et al.
# Submitted via: ExactAudioCopy v0.99pb3
#
DISCID=8307e50b
DTITLE=One Million Pieces - Smother Mary
DYEAR=1992
DGENRE=Phantom
TTITLE0=Nothing Will Change
TTITLE1=The Big Ride
TTITLE2=Hold Still The World
TTITLE3=Relatives
TTITLE4=All Of Us
TTITLE5=Follow Me
TTITLE6=Deep Dark Hole
TTITLE7=So Sure
TTITLE8=Picture Of You
TTITLE9=I Think I'll Take My Own Life
TTITLE10=Smother Mary
EXTD=
EXTT0=
EXTT1=
EXTT2=
EXTT3=
EXTT4=
EXTT5=
EXTT6=
EXTT7=
EXTT8=
EXTT9=
EXTT10=
PLAYORDER=
